<mxfile host="app.diagrams.net" agent="Mozilla/5.0 (Macintosh; Intel Mac OS X 10_15_7) AppleWebKit/605.1.15 (KHTML, like Gecko) Version/17.6 Safari/605.1.15" version="24.7.7">
  <diagram name="Page-1" id="-RAy_EhFOuc6lhOwWY6m">
    <mxGraphModel dx="1749" dy="1060" grid="1" gridSize="10" guides="1" tooltips="1" connect="1" arrows="1" fold="1" page="1" pageScale="1" pageWidth="850" pageHeight="1100" math="0" shadow="0">
      <root>
        <mxCell id="0" />
        <mxCell id="1" parent="0" />
        <mxCell id="dtQmy52E7pvu5laXVgeq-10" value="Vehicle&lt;div&gt;&lt;br&gt;&lt;/div&gt;" style="swimlane;fontStyle=1;align=center;verticalAlign=top;childLayout=stackLayout;horizontal=1;startSize=26;horizontalStack=0;resizeParent=1;resizeParentMax=0;resizeLast=0;collapsible=1;marginBottom=0;whiteSpace=wrap;html=1;" vertex="1" parent="1">
          <mxGeometry x="345" y="430" width="180" height="190" as="geometry" />
        </mxCell>
        <mxCell id="dtQmy52E7pvu5laXVgeq-11" value="- brand : String&lt;div&gt;- model : String&lt;/div&gt;&lt;div&gt;- &lt;u&gt;vehicleCount : Int&lt;/u&gt;&lt;/div&gt;" style="text;strokeColor=none;fillColor=none;align=left;verticalAlign=top;spacingLeft=4;spacingRight=4;overflow=hidden;rotatable=0;points=[[0,0.5],[1,0.5]];portConstraint=eastwest;whiteSpace=wrap;html=1;" vertex="1" parent="dtQmy52E7pvu5laXVgeq-10">
          <mxGeometry y="26" width="180" height="54" as="geometry" />
        </mxCell>
        <mxCell id="dtQmy52E7pvu5laXVgeq-12" value="" style="line;strokeWidth=1;fillColor=none;align=left;verticalAlign=middle;spacingTop=-1;spacingLeft=3;spacingRight=3;rotatable=0;labelPosition=right;points=[];portConstraint=eastwest;strokeColor=inherit;" vertex="1" parent="dtQmy52E7pvu5laXVgeq-10">
          <mxGeometry y="80" width="180" height="8" as="geometry" />
        </mxCell>
        <mxCell id="dtQmy52E7pvu5laXVgeq-13" value="+Vehicle(brand : String, model String)&lt;div&gt;&lt;br&gt;&lt;/div&gt;&lt;div&gt;+displayInfo()&lt;/div&gt;&lt;div&gt;&lt;br&gt;&lt;/div&gt;&lt;div&gt;&lt;u&gt;+getVehicleCount()&lt;/u&gt;&lt;/div&gt;" style="text;strokeColor=none;fillColor=none;align=left;verticalAlign=top;spacingLeft=4;spacingRight=4;overflow=hidden;rotatable=0;points=[[0,0.5],[1,0.5]];portConstraint=eastwest;whiteSpace=wrap;html=1;" vertex="1" parent="dtQmy52E7pvu5laXVgeq-10">
          <mxGeometry y="88" width="180" height="102" as="geometry" />
        </mxCell>
        <mxCell id="dtQmy52E7pvu5laXVgeq-14" value="Car" style="swimlane;fontStyle=1;align=center;verticalAlign=top;childLayout=stackLayout;horizontal=1;startSize=26;horizontalStack=0;resizeParent=1;resizeParentMax=0;resizeLast=0;collapsible=1;marginBottom=0;whiteSpace=wrap;html=1;" vertex="1" parent="1">
          <mxGeometry x="75" y="790" width="160" height="140" as="geometry" />
        </mxCell>
        <mxCell id="dtQmy52E7pvu5laXVgeq-15" value="- doors : Int" style="text;strokeColor=none;fillColor=none;align=left;verticalAlign=top;spacingLeft=4;spacingRight=4;overflow=hidden;rotatable=0;points=[[0,0.5],[1,0.5]];portConstraint=eastwest;whiteSpace=wrap;html=1;" vertex="1" parent="dtQmy52E7pvu5laXVgeq-14">
          <mxGeometry y="26" width="160" height="26" as="geometry" />
        </mxCell>
        <mxCell id="dtQmy52E7pvu5laXVgeq-16" value="" style="line;strokeWidth=1;fillColor=none;align=left;verticalAlign=middle;spacingTop=-1;spacingLeft=3;spacingRight=3;rotatable=0;labelPosition=right;points=[];portConstraint=eastwest;strokeColor=inherit;" vertex="1" parent="dtQmy52E7pvu5laXVgeq-14">
          <mxGeometry y="52" width="160" height="8" as="geometry" />
        </mxCell>
        <mxCell id="dtQmy52E7pvu5laXVgeq-17" value="+Car(brand : String, model : String, doors : Int)&lt;div&gt;&lt;br&gt;&lt;/div&gt;&lt;div&gt;+displayInfo()&lt;/div&gt;" style="text;strokeColor=none;fillColor=none;align=left;verticalAlign=top;spacingLeft=4;spacingRight=4;overflow=hidden;rotatable=0;points=[[0,0.5],[1,0.5]];portConstraint=eastwest;whiteSpace=wrap;html=1;" vertex="1" parent="dtQmy52E7pvu5laXVgeq-14">
          <mxGeometry y="60" width="160" height="80" as="geometry" />
        </mxCell>
        <mxCell id="dtQmy52E7pvu5laXVgeq-24" value="Truck" style="swimlane;fontStyle=1;align=center;verticalAlign=top;childLayout=stackLayout;horizontal=1;startSize=26;horizontalStack=0;resizeParent=1;resizeParentMax=0;resizeLast=0;collapsible=1;marginBottom=0;whiteSpace=wrap;html=1;" vertex="1" parent="1">
          <mxGeometry x="345" y="790" width="160" height="140" as="geometry" />
        </mxCell>
        <mxCell id="dtQmy52E7pvu5laXVgeq-25" value="- payloadCapacity : Int" style="text;strokeColor=none;fillColor=none;align=left;verticalAlign=top;spacingLeft=4;spacingRight=4;overflow=hidden;rotatable=0;points=[[0,0.5],[1,0.5]];portConstraint=eastwest;whiteSpace=wrap;html=1;" vertex="1" parent="dtQmy52E7pvu5laXVgeq-24">
          <mxGeometry y="26" width="160" height="26" as="geometry" />
        </mxCell>
        <mxCell id="dtQmy52E7pvu5laXVgeq-26" value="" style="line;strokeWidth=1;fillColor=none;align=left;verticalAlign=middle;spacingTop=-1;spacingLeft=3;spacingRight=3;rotatable=0;labelPosition=right;points=[];portConstraint=eastwest;strokeColor=inherit;" vertex="1" parent="dtQmy52E7pvu5laXVgeq-24">
          <mxGeometry y="52" width="160" height="8" as="geometry" />
        </mxCell>
        <mxCell id="dtQmy52E7pvu5laXVgeq-27" value="+Truck(brand : String, model : String, payloadCapacity : Int)&lt;div&gt;&lt;br&gt;&lt;/div&gt;&lt;div&gt;+displayInfo()&lt;/div&gt;" style="text;strokeColor=none;fillColor=none;align=left;verticalAlign=top;spacingLeft=4;spacingRight=4;overflow=hidden;rotatable=0;points=[[0,0.5],[1,0.5]];portConstraint=eastwest;whiteSpace=wrap;html=1;" vertex="1" parent="dtQmy52E7pvu5laXVgeq-24">
          <mxGeometry y="60" width="160" height="80" as="geometry" />
        </mxCell>
        <mxCell id="dtQmy52E7pvu5laXVgeq-31" value="Motorcycle" style="swimlane;fontStyle=1;align=center;verticalAlign=top;childLayout=stackLayout;horizontal=1;startSize=26;horizontalStack=0;resizeParent=1;resizeParentMax=0;resizeLast=0;collapsible=1;marginBottom=0;whiteSpace=wrap;html=1;" vertex="1" parent="1">
          <mxGeometry x="615" y="790" width="160" height="140" as="geometry" />
        </mxCell>
        <mxCell id="dtQmy52E7pvu5laXVgeq-32" value="- hasSideCar : boolean" style="text;strokeColor=none;fillColor=none;align=left;verticalAlign=top;spacingLeft=4;spacingRight=4;overflow=hidden;rotatable=0;points=[[0,0.5],[1,0.5]];portConstraint=eastwest;whiteSpace=wrap;html=1;" vertex="1" parent="dtQmy52E7pvu5laXVgeq-31">
          <mxGeometry y="26" width="160" height="26" as="geometry" />
        </mxCell>
        <mxCell id="dtQmy52E7pvu5laXVgeq-33" value="" style="line;strokeWidth=1;fillColor=none;align=left;verticalAlign=middle;spacingTop=-1;spacingLeft=3;spacingRight=3;rotatable=0;labelPosition=right;points=[];portConstraint=eastwest;strokeColor=inherit;" vertex="1" parent="dtQmy52E7pvu5laXVgeq-31">
          <mxGeometry y="52" width="160" height="8" as="geometry" />
        </mxCell>
        <mxCell id="dtQmy52E7pvu5laXVgeq-34" value="+Motorcycle(brand : String, model : String, hasSideCar : boolean)&lt;div&gt;&lt;br&gt;&lt;/div&gt;&lt;div&gt;+displayInfo()&lt;/div&gt;" style="text;strokeColor=none;fillColor=none;align=left;verticalAlign=top;spacingLeft=4;spacingRight=4;overflow=hidden;rotatable=0;points=[[0,0.5],[1,0.5]];portConstraint=eastwest;whiteSpace=wrap;html=1;" vertex="1" parent="dtQmy52E7pvu5laXVgeq-31">
          <mxGeometry y="60" width="160" height="80" as="geometry" />
        </mxCell>
        <mxCell id="dtQmy52E7pvu5laXVgeq-38" style="edgeStyle=orthogonalEdgeStyle;rounded=0;orthogonalLoop=1;jettySize=auto;html=1;entryX=0.449;entryY=0.995;entryDx=0;entryDy=0;entryPerimeter=0;" edge="1" parent="1" source="dtQmy52E7pvu5laXVgeq-14" target="dtQmy52E7pvu5laXVgeq-13">
          <mxGeometry relative="1" as="geometry" />
        </mxCell>
        <mxCell id="dtQmy52E7pvu5laXVgeq-39" style="edgeStyle=orthogonalEdgeStyle;rounded=0;orthogonalLoop=1;jettySize=auto;html=1;entryX=0.444;entryY=0.995;entryDx=0;entryDy=0;entryPerimeter=0;" edge="1" parent="1" source="dtQmy52E7pvu5laXVgeq-24" target="dtQmy52E7pvu5laXVgeq-13">
          <mxGeometry relative="1" as="geometry" />
        </mxCell>
        <mxCell id="dtQmy52E7pvu5laXVgeq-41" style="edgeStyle=orthogonalEdgeStyle;rounded=0;orthogonalLoop=1;jettySize=auto;html=1;entryX=0.444;entryY=1.003;entryDx=0;entryDy=0;entryPerimeter=0;" edge="1" parent="1" source="dtQmy52E7pvu5laXVgeq-31" target="dtQmy52E7pvu5laXVgeq-13">
          <mxGeometry relative="1" as="geometry" />
        </mxCell>
        <mxCell id="dtQmy52E7pvu5laXVgeq-46" value="Vehicle Registration Service" style="swimlane;fontStyle=1;align=center;verticalAlign=top;childLayout=stackLayout;horizontal=1;startSize=26;horizontalStack=0;resizeParent=1;resizeParentMax=0;resizeLast=0;collapsible=1;marginBottom=0;whiteSpace=wrap;html=1;" vertex="1" parent="1">
          <mxGeometry x="470" y="80" width="220" height="220" as="geometry" />
        </mxCell>
        <mxCell id="dtQmy52E7pvu5laXVgeq-47" value="- br : BufferedReader&lt;div&gt;- brand : String&lt;/div&gt;&lt;div&gt;- model : String&lt;/div&gt;&lt;div&gt;- type : String&lt;/div&gt;&lt;div&gt;- flag : String&lt;/div&gt;&lt;div&gt;- vehicleList : Vehicle[]&lt;br&gt;&lt;/div&gt;&lt;div&gt;&lt;br&gt;&lt;/div&gt;" style="text;strokeColor=none;fillColor=none;align=left;verticalAlign=top;spacingLeft=4;spacingRight=4;overflow=hidden;rotatable=0;points=[[0,0.5],[1,0.5]];portConstraint=eastwest;whiteSpace=wrap;html=1;" vertex="1" parent="dtQmy52E7pvu5laXVgeq-46">
          <mxGeometry y="26" width="220" height="94" as="geometry" />
        </mxCell>
        <mxCell id="dtQmy52E7pvu5laXVgeq-48" value="" style="line;strokeWidth=1;fillColor=none;align=left;verticalAlign=middle;spacingTop=-1;spacingLeft=3;spacingRight=3;rotatable=0;labelPosition=right;points=[];portConstraint=eastwest;strokeColor=inherit;" vertex="1" parent="dtQmy52E7pvu5laXVgeq-46">
          <mxGeometry y="120" width="220" height="8" as="geometry" />
        </mxCell>
        <mxCell id="dtQmy52E7pvu5laXVgeq-49" value="+ getVehicleInfo()&lt;div&gt;+ getCommonInfo()&lt;/div&gt;&lt;div&gt;+ getCarInfo()&lt;/div&gt;&lt;div&gt;+ getTruckInfo()&lt;/div&gt;&lt;div&gt;+ getMotorcycleInfo()&lt;/div&gt;&lt;div&gt;+ display&lt;/div&gt;" style="text;strokeColor=none;fillColor=none;align=left;verticalAlign=top;spacingLeft=4;spacingRight=4;overflow=hidden;rotatable=0;points=[[0,0.5],[1,0.5]];portConstraint=eastwest;whiteSpace=wrap;html=1;" vertex="1" parent="dtQmy52E7pvu5laXVgeq-46">
          <mxGeometry y="128" width="220" height="92" as="geometry" />
        </mxCell>
        <mxCell id="dtQmy52E7pvu5laXVgeq-54" value="MainApp" style="swimlane;fontStyle=0;childLayout=stackLayout;horizontal=1;startSize=26;fillColor=none;horizontalStack=0;resizeParent=1;resizeParentMax=0;resizeLast=0;collapsible=1;marginBottom=0;whiteSpace=wrap;html=1;" vertex="1" parent="1">
          <mxGeometry x="95" y="130" width="140" height="52" as="geometry" />
        </mxCell>
        <mxCell id="dtQmy52E7pvu5laXVgeq-55" value="&lt;u&gt;+ Main(arg : String[]))&lt;/u&gt;" style="text;strokeColor=none;fillColor=none;align=left;verticalAlign=top;spacingLeft=4;spacingRight=4;overflow=hidden;rotatable=0;points=[[0,0.5],[1,0.5]];portConstraint=eastwest;whiteSpace=wrap;html=1;" vertex="1" parent="dtQmy52E7pvu5laXVgeq-54">
          <mxGeometry y="26" width="140" height="26" as="geometry" />
        </mxCell>
        <mxCell id="dtQmy52E7pvu5laXVgeq-60" value="" style="endArrow=none;html=1;rounded=0;exitX=1.007;exitY=-0.077;exitDx=0;exitDy=0;exitPerimeter=0;" edge="1" parent="1" source="dtQmy52E7pvu5laXVgeq-55" target="dtQmy52E7pvu5laXVgeq-47">
          <mxGeometry width="50" height="50" relative="1" as="geometry">
            <mxPoint x="360" y="320" as="sourcePoint" />
            <mxPoint x="410" y="270" as="targetPoint" />
          </mxGeometry>
        </mxCell>
        <mxCell id="dtQmy52E7pvu5laXVgeq-68" value="0..*" style="edgeLabel;html=1;align=center;verticalAlign=middle;resizable=0;points=[];" vertex="1" connectable="0" parent="dtQmy52E7pvu5laXVgeq-60">
          <mxGeometry x="-0.8875" relative="1" as="geometry">
            <mxPoint as="offset" />
          </mxGeometry>
        </mxCell>
        <mxCell id="dtQmy52E7pvu5laXVgeq-69" value="1" style="edgeLabel;html=1;align=center;verticalAlign=middle;resizable=0;points=[];" vertex="1" connectable="0" parent="dtQmy52E7pvu5laXVgeq-60">
          <mxGeometry x="0.8837" y="1" relative="1" as="geometry">
            <mxPoint as="offset" />
          </mxGeometry>
        </mxCell>
        <mxCell id="dtQmy52E7pvu5laXVgeq-70" value="" style="endArrow=diamondThin;endFill=1;endSize=24;html=1;rounded=0;exitX=0.5;exitY=0;exitDx=0;exitDy=0;entryX=0.468;entryY=1.011;entryDx=0;entryDy=0;entryPerimeter=0;" edge="1" parent="1" source="dtQmy52E7pvu5laXVgeq-10" target="dtQmy52E7pvu5laXVgeq-49">
          <mxGeometry width="160" relative="1" as="geometry">
            <mxPoint x="360" y="340" as="sourcePoint" />
            <mxPoint x="520" y="340" as="targetPoint" />
          </mxGeometry>
        </mxCell>
      </root>
    </mxGraphModel>
  </diagram>
</mxfile>
